<?xml version="1.0" encoding="utf-8"?>
<!-- Generator: Adobe Illustrator 22.0.0, SVG Export Plug-In . SVG Version: 6.00 Build 0)  -->
<svg version="1.1" id="Layer_1" xmlns="http://www.w3.org/2000/svg" xmlns:xlink="http://www.w3.org/1999/xlink" x="0px" y="0px"
	 viewBox="0 0 1280 1280" style="enable-background:new 0 0 1280 1280;" xml:space="preserve">
<style type="text/css">
	.st0{fill:#2E6D36;}
	.st1{fill:#377541;}
</style>
<g>
	<path class="st0" d="M541.7,635.5c-2.9,2.1-5.5,4.1-8.2,6.1c0,0.6,0,1.2,0,1.9c3.2,1.4,6.5,2.4,9.4,4.2c2.5,1.5,4.5,3.9,6.6,6
		c8.1,7.9,16.1,15.9,24.1,23.9c4.1,4.1,4.7,10.2,1.2,13.3c-3.2,2.8-9.3,2.5-13-1.5c-8.6-9.2-17.8-17.8-26.6-26.9
		c-1.5-1.5-1.7-4.2-2.9-6c-1.4-2.2-3.2-4.1-6-7.5c-1.8,4-2.8,7.1-4.5,9.6c-2,3-4.7,5.5-7.2,8.1c-7.6,7.7-15.2,15.3-22.8,23
		c-3.7,3.8-9,4.4-12.5,1.3c-3.7-3.3-3.9-7.9,0.2-12.1c9.3-9.7,18.6-19.3,28.4-28.5c3.1-3,7.7-4.4,12.5-7c-3.1-3.4-5.5-6.1-7.8-8.6
		c-13.3,7.4-25,1.5-31.4-10.5c-3.5-6.7-6.5-13.5-6-21.3c0.5-7.8,4.3-11.9,12-11.5c13.7,0.7,26.1,5,32.5,18.2
		c1.9,3.9,2.3,9.9,0.7,13.8c-2,4.8-0.6,6.9,2.5,9.5c1.3,1,2.5,2.1,4,3.3c2.7-2.5,5.2-4.8,7.6-7.1c-5.1-10.4-4.6-13.2,3.6-21.7
		c6.3-6.6,12.7-13.1,19.3-19.4c0.9-0.9,4-0.9,4.8-0.1c6.4,6,12.5,12.3,18.8,18.5c2.2,2.2,2.7,4.1,0,6.6c-6.8,6.5-13.2,13.5-20.1,20
		C554.1,639.3,549.1,639.7,541.7,635.5z M499.9,634.5c8.1,0.3,13.7-2.8,16.9-9c3.5-6.7,3.2-14.1-1.8-19.6
		c-6.6-7.3-15.7-11.2-25.5-12.2c-8.2-0.8-13.1,4.9-11.3,13.1c1,4.7,2.4,9.4,4.5,13.6C486.5,627.8,491.2,634.6,499.9,634.5z
		 M559.8,590.3c-6.9,6.7-13.4,13.7-20.6,19.9c-4.9,4.2-5.6,10.7-3.1,15.3c4.1,7.4,11.3,11,17.6,9c1.5-0.5,3.1-1.3,4.3-2.4
		c7.6-7.1,15.1-14.3,22.4-21.2C573,603.4,566.4,596.8,559.8,590.3z M510.8,650.2c-4.9,5.2-9.4,10.1-13.9,14.9
		c-5.1,5.2-10.4,10.3-15.4,15.6c-2.5,2.7-2.6,5.8,0.1,8.4c2.6,2.4,4.9,1.4,7.3-0.9c7.1-7.1,14.4-14.1,21.5-21.2
		c2.8-2.7,5.3-5.7,7.7-8.2C515.7,655.8,513.7,653.5,510.8,650.2z M535.9,658.8c-0.1-0.3-0.1,0.1,0.1,0.3
		c9.8,9.9,19.5,19.8,29.3,29.7c2.2,2.2,4.7,2.1,7-0.2c2.4-2.4,2.8-4.9,0.4-7.4c-5.4-5.6-10.9-11.1-16.3-16.7
		c-4.4-4.7-8.7-9.5-13.5-14.7C540.2,653.5,538.3,655.9,535.9,658.8z M538.7,650.8c-7.3-6.7-14.5-13.2-21.6-19.7
		c-0.6,0.6-1.1,1.1-1.7,1.7c6.4,7.1,12.8,14.2,19.4,21.5C536.2,652.9,537.3,652,538.7,650.8z M521,643.7c-1.7,2.4-3.5,4.7-5.3,7.2
		c1,1.1,1.8,2,2.7,3C525.2,648.9,525.4,648.2,521,643.7z M539.2,631.9c-4.7-0.6-6.1,3-8.3,4.6c-0.6,0.4-0.5,1.8-0.7,2.8
		c1-0.1,2.3,0.1,2.9-0.4C535,637,536.7,634.8,539.2,631.9z"/>
	<path class="st1" d="M545.4,623c7.2-6.9,13.3-12.7,19.3-18.5C564.4,607.9,551.3,621.4,545.4,623z"/>
	<path class="st1" d="M541.6,618.1c7.2-6.9,13.3-12.7,19.3-18.5C560.7,603.1,547.6,616.5,541.6,618.1z"/>
	<path class="st1" d="M550.5,626.9c7.2-6.9,13.3-12.7,19.3-18.5C569.5,611.9,556.5,625.3,550.5,626.9z"/>
</g>
</svg>
